<svg width="300" height="29" viewBox="0 0 300 29" fill="none" xmlns="http://www.w3.org/2000/svg">
<path d="M38.0451 15.465C38.0451 14.1417 38.2973 12.9799 38.8015 11.9796C39.3215 10.9794 40.0228 10.21 40.9052 9.67142C41.7877 9.13284 42.7725 8.86355 43.8598 8.86355C44.7896 8.86355 45.6011 9.0482 46.2945 9.41752C47.0036 9.78683 47.5472 10.2716 47.9254 10.8717V9.0482H51.9673V21.928H47.9254V20.1046C47.5315 20.7047 46.9799 21.1894 46.2708 21.5587C45.5775 21.928 44.7659 22.1127 43.8362 22.1127C42.7647 22.1127 41.7877 21.8434 40.9052 21.3048C40.0228 20.7509 39.3215 19.9738 38.8015 18.9735C38.2973 17.9579 38.0451 16.7884 38.0451 15.465ZM47.9254 15.4881C47.9254 14.5033 47.6418 13.7262 47.0745 13.1568C46.5229 12.5875 45.8454 12.3028 45.0417 12.3028C44.238 12.3028 43.5526 12.5875 42.9853 13.1568C42.4337 13.7108 42.158 14.4802 42.158 15.465C42.158 16.4499 42.4337 17.2347 42.9853 17.8194C43.5526 18.3888 44.238 18.6735 45.0417 18.6735C45.8454 18.6735 46.5229 18.3888 47.0745 17.8194C47.6418 17.2501 47.9254 16.473 47.9254 15.4881Z" fill="#31352E"/>
<path d="M83.4923 9.0482L75.2193 28.0448H70.8701L73.8957 21.4895L68.5301 9.0482H73.0447L76.0939 17.1039L79.1194 9.0482H83.4923Z" fill="#31352E"/>
<path d="M106.085 22.1127C104.793 22.1127 103.627 21.8434 102.587 21.3048C101.563 20.7662 100.751 19.9968 100.153 18.9966C99.5695 17.9964 99.2779 16.8269 99.2779 15.4881C99.2779 14.1647 99.5774 13.0029 100.176 12.0027C100.775 10.9871 101.594 10.21 102.634 9.67142C103.674 9.13284 104.841 8.86355 106.133 8.86355C107.425 8.86355 108.591 9.13284 109.631 9.67142C110.671 10.21 111.49 10.9871 112.089 12.0027C112.688 13.0029 112.987 14.1647 112.987 15.4881C112.987 16.8115 112.68 17.981 112.066 18.9966C111.467 19.9968 110.639 20.7662 109.584 21.3048C108.544 21.8434 107.378 22.1127 106.085 22.1127ZM106.085 18.6965C106.858 18.6965 107.512 18.4196 108.047 17.8656C108.599 17.3116 108.875 16.5191 108.875 15.4881C108.875 14.4571 108.607 13.6646 108.071 13.1107C107.551 12.5567 106.905 12.2797 106.133 12.2797C105.345 12.2797 104.691 12.5567 104.171 13.1107C103.651 13.6492 103.391 14.4417 103.391 15.4881C103.391 16.5191 103.643 17.3116 104.147 17.8656C104.667 18.4196 105.313 18.6965 106.085 18.6965Z" fill="#31352E"/>
<path d="M147.089 8.90971C148.728 8.90971 150.028 9.39444 150.989 10.3639C151.966 11.3333 152.455 12.6798 152.455 14.4033V21.928H148.436V14.9342C148.436 14.1032 148.208 13.4646 147.751 13.0183C147.31 12.5567 146.695 12.3259 145.907 12.3259C145.119 12.3259 144.497 12.5567 144.04 13.0183C143.599 13.4646 143.378 14.1032 143.378 14.9342V21.928H139.36V14.9342C139.36 14.1032 139.131 13.4646 138.674 13.0183C138.233 12.5567 137.618 12.3259 136.831 12.3259C136.043 12.3259 135.42 12.5567 134.963 13.0183C134.522 13.4646 134.301 14.1032 134.301 14.9342V21.928H130.259V9.0482H134.301V10.664C134.711 10.1254 135.247 9.7022 135.909 9.39444C136.571 9.07129 137.319 8.90971 138.154 8.90971C139.147 8.90971 140.029 9.11745 140.802 9.53293C141.589 9.94841 142.204 10.5408 142.645 11.3103C143.102 10.6024 143.725 10.0253 144.513 9.57909C145.3 9.13284 146.159 8.90971 147.089 8.90971Z" fill="#31352E"/>
<path d="M172.442 7.70944C171.733 7.70944 171.15 7.50939 170.693 7.1093C170.252 6.69382 170.031 6.18602 170.031 5.58588C170.031 4.97036 170.252 4.46255 170.693 4.06246C171.15 3.64698 171.733 3.43924 172.442 3.43924C173.135 3.43924 173.703 3.64698 174.144 4.06246C174.601 4.46255 174.829 4.97036 174.829 5.58588C174.829 6.18602 174.601 6.69382 174.144 7.1093C173.703 7.50939 173.135 7.70944 172.442 7.70944ZM174.451 9.0482V21.928H170.409V9.0482H174.451Z" fill="#31352E"/>
<path d="M191.704 15.465C191.704 14.1417 191.956 12.9799 192.461 11.9796C192.981 10.9794 193.682 10.21 194.564 9.67142C195.447 9.13284 196.432 8.86355 197.519 8.86355C198.386 8.86355 199.174 9.04051 199.883 9.39444C200.608 9.74836 201.175 10.2254 201.585 10.8255V4.84725H205.626V21.928H201.585V20.0815C201.206 20.697 200.663 21.1894 199.954 21.5587C199.26 21.928 198.449 22.1127 197.519 22.1127C196.432 22.1127 195.447 21.8434 194.564 21.3048C193.682 20.7509 192.981 19.9738 192.461 18.9735C191.956 17.9579 191.704 16.7884 191.704 15.465ZM201.585 15.4881C201.585 14.5033 201.301 13.7262 200.734 13.1568C200.182 12.5875 199.504 12.3028 198.701 12.3028C197.897 12.3028 197.212 12.5875 196.644 13.1568C196.093 13.7108 195.817 14.4802 195.817 15.465C195.817 16.4499 196.093 17.2347 196.644 17.8194C197.212 18.3888 197.897 18.6735 198.701 18.6735C199.504 18.6735 200.182 18.3888 200.734 17.8194C201.301 17.2501 201.585 16.473 201.585 15.4881Z" fill="#31352E"/>
<path d="M236.111 15.2804C236.111 15.6497 236.088 16.0344 236.04 16.4345H226.893C226.956 17.2347 227.216 17.8502 227.673 18.2811C228.146 18.6965 228.721 18.9043 229.398 18.9043C230.407 18.9043 231.108 18.4888 231.502 17.6578H235.804C235.583 18.5042 235.182 19.2659 234.599 19.943C234.031 20.6201 233.314 21.1509 232.448 21.5356C231.581 21.9204 230.612 22.1127 229.54 22.1127C228.248 22.1127 227.098 21.8434 226.089 21.3048C225.081 20.7662 224.293 19.9968 223.726 18.9966C223.158 17.9964 222.875 16.8269 222.875 15.4881C222.875 14.1494 223.15 12.9799 223.702 11.9796C224.269 10.9794 225.057 10.21 226.066 9.67142C227.074 9.13284 228.232 8.86355 229.54 8.86355C230.817 8.86355 231.951 9.12514 232.944 9.64834C233.937 10.1715 234.709 10.9179 235.26 11.8873C235.828 12.8568 236.111 13.9878 236.111 15.2804ZM231.975 14.2417C231.975 13.5646 231.739 13.026 231.266 12.6259C230.793 12.2258 230.202 12.0258 229.493 12.0258C228.815 12.0258 228.24 12.2182 227.768 12.6029C227.311 12.9876 227.027 13.5338 226.917 14.2417H231.975Z" fill="#31352E"/>
<path d="M262.377 0L256.042 26.2444H252.142L258.477 0H262.377Z" fill="#31352E"/>
<path d="M11.9958 28.3333L0 15.5804L11.9958 2.82755H24.7007L12.6458 15.5804L24.7007 28.3333H11.9958Z" fill="#31352E"/>
<path d="M288.004 2.82755L300 15.5804L288.004 28.3333H275.299L287.354 15.5804L275.299 2.82755H288.004Z" fill="#31352E"/>
</svg>
